<svg width="286" height="86" viewBox="0 0 286 86" fill="none" xmlns="http://www.w3.org/2000/svg">
<path d="M10.5123 84.8972H7.91357V2.48796L0 2.25965V0.225021H30.8619L41.8275 11.0764V39.6787L30.637 51.5474H10.5123V84.8972ZM10.5123 48.9487H29.5022L39.2254 38.6614V12.0971L29.5022 2.48796H10.5123V48.9487Z" fill="white"/>
<path d="M57.7654 72.3503L67.7136 82.6376H79.0182L88.7415 72.3503V53.0179L56.0699 29.8446V11.3046L66.9213 0H79.9214L90.662 11.3046V23.4016H88.6273V12.3219L78.7933 2.59868H67.9386L58.5578 12.3219V28.6023L91.3402 51.6615V73.4817L80.1497 85.1255H66.6963L55.5058 73.4817V58.8969H57.7654V72.3503Z" fill="white"/>
<path d="M128.87 49.402H127.514V84.8972H126.157H124.915V49.402H123.555L107.503 2.37378H99.5895V0.114182H109.427L125.365 46.7999H127.06L143.002 0.114182H145.715L128.87 49.402Z" fill="white"/>
<path d="M189.013 12.4361L179.628 2.59872H168.099L158.715 12.4361V72.2362L168.21 82.7484H179.628L189.013 72.2362V60.4783H191.611V73.1427L180.76 85.2363H167.082L156.227 73.1427V11.4188L167.082 0.114182H180.76L191.611 11.4188V22.4951H189.013V12.4361Z" fill="white"/>
<path d="M210.262 0.225021V82.5235H238.864L239.089 68.0528H241.238V84.8972H207.663V2.48796L198.618 2.25965V0.225021H210.262Z" fill="white"/>
<path d="M282.609 17.976L282.27 2.82708H257.965V41.7134H280.46V44.0871H257.965V82.2986H283.401L283.74 68.2811H286V84.8973H255.366V2.82708L247.453 2.48798V0.339203H284.869V17.976H282.609Z" fill="white"/>
</svg>
